<svg version="1" xmlns="http://www.w3.org/2000/svg" width="4114.667" height="4114.667" viewBox="0 0 3086.000000 3086.000000"><path d="M2800 1279.1c-1.9.4-7.8 1.2-13 1.8-46.2 5.5-92.7 25.3-131 55.7-11.3 9-31.8 29.6-41.2 41.4-25.6 32.2-44.7 72.3-52.8 111.3-5.3 25.3-7 61.6-4.1 86.7 8.9 76.4 50.6 144.9 113.8 186.7 38.5 25.4 80.1 39.4 130.8 43.9 19.7 1.8 51.3.1 68.3-3.7 2.3-.5 5.9-1.2 7.8-1.5 6.5-1 27.9-7.2 38-10.9 13-4.8 31.7-13.7 42.9-20.4 8-4.7 23.2-14.7 24.5-16.1.3-.3 3.8-3.2 7.9-6.4 41.7-33.3 75.8-89.7 87.1-143.8 2.6-12.3 2.6-12.8 5-31.3.9-7.3.6-53-.4-60-4.6-31.9-10.2-52.7-21.1-78-16.8-38.9-42-72-74.3-97.9-8.4-6.7-23.7-17.6-24.7-17.6-.3 0-2.9-1.6-6-3.5-7.5-4.8-29-15.4-40.1-19.8-17.4-6.9-43.8-13.5-59.9-15.2-3.3-.3-7.3-.8-9-1.1-4.6-.9-44.6-1.1-48.5-.3zm35 98.3c7.8.6 8.6.7 21.4 3.2 22.5 4.4 48.4 16.5 66.6 31.2 14.5 11.7 27.1 25.6 36.4 40.2 1.6 2.5 3.7 5.6 4.6 7 2.2 3.4 9.4 18.2 12 25 5.2 13.1 9.2 30 10.8 45.2.9 8.7.8 30.3-.2 36.3-.4 2.2-1.1 6.9-1.7 10.5-6 36.3-26.3 70.1-58 96.5-5.1 4.3-18.9 12.8-28.9 17.9-13.5 7-27.4 11.8-43 15.2-22.5 4.8-51.3 4.3-74.5-1.2-20.7-4.9-47.4-18.2-65-32.3-4.8-3.9-16.8-15.4-21-20.2-21.5-24.7-35.5-56.7-39.4-89.9-.8-7.4-.7-30.7.3-36.5.2-1.7.8-4.8 1.1-7 8.4-50.9 42.4-98.2 88.5-123.2 19.3-10.4 46.4-17.7 68-18.3 3.5 0 6.6-.3 6.7-.4.2-.2 2-.2 4.1 0 2 .2 7.1.5 11.2.8zM.9 1299.7c-.1.4-.2 19.4-.2 42.1-.1 26.7.2 41.6.8 42 .6.4 33.2.7 72.5.8 69.1.1 79.3.5 94.5 3.4 2.8.5 6.6 1.2 8.5 1.5 12.5 2 34.3 8.5 46 13.7 15.5 6.8 29.1 15.8 39 25.8 16.1 16 32.9 47.4 39.6 73.7 2.4 9.6 2.8 11.8 4.3 24.8.9 7.3.6 32.2-.3 36.5-.3 1.4-.8 4.7-1.2 7.5-.3 2.7-1 7-1.5 9.5-.6 2.5-1.3 5.4-1.5 6.6-1.6 8.5-9.4 28.3-15.5 39.6-12.5 22.9-23 34.3-42.1 45.6-10.6 6.2-34.3 15.4-45.7 17.7l-8.1 1.8c-3.6.9-8.5 1.8-11 2.2-2.5.3-5.2.8-6 1-2 .5-12 2-21 3-2.5.3-7 .8-10 1.1-3 .4-35.9.8-73 .9-37.1.1-67.7.3-68 .4-.3 0-.5 19.1-.4 42.3v42.3l96.5.1c88 .1 111.1-.3 124.7-2.1 16.7-2.2 37.2-8.6 55.7-17.4 22.2-10.6 40.6-24 61.2-44.8 9.7-9.7 14.3-15.4 22.2-27.2 29.9-45.2 44.3-93.2 44.5-149.1.3-64.5-15.6-115.2-49.4-158.4-8.8-11.3-26.9-29.7-37.5-38.2-35.2-28.1-76.8-44.2-125-48.3-12.7-1.1-192.5-1.4-192.6-.4zM486.9 1299.7c-.1.5-.2 19.6-.3 42.5l-.1 41.8h196.3c107.9 0 196.2-.3 196.2-.8.1-1.7.2-81.8.1-83-.1-.9-40-1.2-196.1-1.2-107.8 0-196 .3-196.1.7zM950.6 1320.2c5.9 11.7 18.2 36.6 27.4 55.3 9.2 18.7 28.6 57.8 43 87 14.4 29.1 34.9 70.5 45.5 92 18.9 38.2 34.4 69.7 87.8 177.7l26.6 53.8h108.2l10.3-21.3c5.7-11.6 16.8-34.3 24.6-50.2 7.8-16 18-36.7 22.5-46 4.5-9.4 14.7-30.1 22.5-46 7.8-16 18.4-37.6 23.5-48 5.1-10.5 15.9-32.5 24-49s18-36.8 22-45c4-8.3 15.2-31.2 25-51s20.6-41.9 24-49c3.5-7.2 13.8-28.2 22.9-46.9 9.1-18.6 16.6-34 16.6-34.2 0-.2-26-.4-57.8-.4h-57.9l-4.1 8.7c-2.2 4.9-8 16.9-12.8 26.8-4.7 9.9-9.9 20.7-11.4 24-1.5 3.3-7.1 14.9-12.4 25.9-5.3 10.9-9.6 19.9-9.6 20.1 0 .1-4.9 10.5-11 23-6 12.4-11 22.8-11 23 0 .2-4.7 10.1-10.5 22-5.8 12-10.5 21.8-10.5 22 0 .1-4 8.5-8.9 18.6-4.8 10.1-12.7 26.5-17.4 36.4-4.7 9.9-11.3 23.8-14.7 31-12.9 27.1-27.5 57.5-33.5 70.2l-4.8 10.3h-7.4l-7.3-15.3c-4.1-8.3-12.3-25.3-18.3-37.7-6-12.4-13.3-27.5-16.2-33.5-2.9-6.1-9.4-19.6-14.5-30-5.1-10.5-12-24.9-15.5-32-9.2-19.1-20.1-41.6-30-62-4.8-9.9-11.1-23-14-29-2.9-6.1-9.9-20.5-15.5-32-5.6-11.6-12.2-25.1-14.5-30-2.4-5-9.9-20.6-16.8-34.8l-12.6-25.7H940l10.6 21.2zM1588 1341.5v42.5h393v-85h-393v42.5zM2062 1345.5v46.5h19.3c256.5.1 263.3.1 270.9 1.4 10.2 1.9 17.1 5.1 24.1 11.6 17.2 15.7 25.3 40.9 21.7 67.2-3.7 27.8-15.4 48-32.1 55.8-14.5 6.7-11.1 6.4-89.6 6.8-39.2.1-71.3.5-71.3.7 0 .3 5.3 6.9 11.9 14.7 16.7 20.2 102.8 124.1 153 184.7l42.3 51.1h64.4c35.4 0 64.4-.3 64.4-.5 0-.3-5.5-7.6-12.2-16.2-6.7-8.7-19.8-25.7-29.2-37.8-9.3-12.1-19.2-24.9-22-28.5-2.8-3.6-17.2-22.3-32.1-41.5-14.9-19.3-30.6-39.5-34.8-44.9-4.2-5.5-7.7-10.2-7.7-10.5 0-.3 2.8-1.4 6.3-2.4 22-6.5 45.7-23.3 59.1-41.9 12-16.9 22.2-45.6 26.1-73.1 8.3-59-5.8-112.6-38.5-147.1-24.1-25.3-53-38.5-91.2-41.5-6.2-.5-76.9-.9-157-1l-145.8-.1v46.5zM486.9 1501.2c-.3 4.2-.4 81.5-.1 82.5.3 1 40.5 1.3 196.3 1.3 185.9 0 195.9-.1 196-1.8.1-1.9.1-72.4 0-79l-.1-4.2H683c-156.1 0-196 .3-196.1 1.2zM1588 1542.5v42.5h393v-85h-393v42.5zM486.8 1701.7c-.3.7-.2 79.4.1 83 .1 1 40 1.3 196.1 1.3s196-.3 196.1-1.3c.1-1.4 0-79.4 0-82-.1-1.6-10.1-1.7-196-1.7-107.8 0-196.1.3-196.3.7zM1588 1743.5v42.4l196.5.1H1981v-85h-393v42.5z"/></svg>