<svg xmlns="http://www.w3.org/2000/svg" style="isolation:isolate" viewBox="0 0 636 833.5"><defs><clipPath id="a"><path d="M0 0h636v833.5H0z"/></clipPath></defs><g clip-path="url(#a)"><path fill="none" stroke="#000" stroke-linecap="square" stroke-miterlimit="3" d="M94.503 39.224L41.087 169.658m-.587-.158l10 61.5m0-.5l30 78.5m14-268.5l-36 125m-18 6l19-6.5m0 0L72 223m-13.5-58L50 229.5m22-7l23 10m-23-10l50-23.5m0 .5l25-47m0-.5l68-54m0 .5l-53 58m0 0L133 211m0 0l15.5-60M122 199l11 11.5m0 0l-38.5 21m2-.5l24.5-32m-24 33l-21 11m0 0l-25-13.5M77.5 243l2.5 66.5M-1 254l25 50M-.5 253l31 46m0-.5l50 11.5m0 0l-47-17.5m0 0l-34-40m25 51.5L132 367m0 0l-52.5-57.5m0 0L145 351m0 0l67.5 30.5m0 0l6.5-13m10 6l-28-18m0 0l-57.5-7m0 0L97 309m0 0l-19.5-68M132 366l81 15.5m0 0l7 3m0 0l28.5 27m0 0L248 425m0 0l10 16.5m0 0l4.5-41m0 0l-13 9.5m13-9.5l15.5-13m0 0l-48.5-13m0 0L263 401m-33.5-28l10 29.5m-39.5-46L159 294m0 0l7-78m0 0l10.5 82m0 0l48 58m0-.5L278 389m-101.5-91.5l18 50.5m23-59l19.5 75m-20-74.5l27-65.5m0 0l-13.5 71m0 0l18 59m0 0l29 34.5m-60-99l13.5 7m0-.5l1.5 50.5m26 94.5l41.5-38m0 0l-37-3.5m37 3l-9-10m0 0l-13.5-4.5M258 441l-8.5 4.5m0 0L241 442m0 0l-65.5-54.5m0 0l-20-1m0 0l-1.5 21m0 0l15 38m0 0l23 25.5m0 0l38.5 15m0 0l21.5 19.5m0 0l-6.5-17m0 0L243 467m0 0l6.5-22.5m-7-2l-18 14.5m.5 0l19.5 10m-.5 0l28 1.5m0 0l-15.5-28M215 444l7 8m0 0l29 52.5M214 444l16 42m-16.5-41.5L191 469m23-25.5l-45 1m0 0l-1-43.5m0 0l7.5-12.5M155 388l14 12m0 0l-14 7m14-7l14 34.5m-.5 0l13-31.5M183 435.5l44-6m-44 6l30.5 8.5m86-41H327m0-.5l10.5-9.5m0 0l12.5-5m0 0l-4 28.5m0 0l-9.5-22.5m-25 9L272 468.5m0 0l28-66M257.5 441l23.5 6m30.5-44l2.5 94.5m0 0L273 467m0 0l4 23m0 0l12 24.5m0 0l25-17.5m0 0l44.5-32.5m.5 0L337.5 448m0 0l-24 49m24-49.5l-26.5-46M272.5 467L251 505.5m0 0l14 1m0 0l12.5-17m-11 16.5l-13 24.5m-2-24.5l5.5 68.5m8-70l24.5 10.5m0 0L266 565.5m0 0l-12-36m34.5-14.5l25.5 6.5m0-.5l24-9.5m0 0l-24.5-16m24.5 15l14.5 10m0 0l21.5-38m.5 0l-15.5-19m0 0l-12.5-48m-35.5-12l39 24.5m.5.5L381 413m0 0l-34.5 3.5m3.5-28l31.5 25.5m1-1l11-25.5m0 0L379 377m0 0l-4-18m0 0l-27 30.5m0 0l32-13m14 11l-45 1m42-33.5l2.5 33.5m0 0l23-21.5m0 0l80.5-28m-122 20l24-60.5m0 0l-10-58m0 0l22 60m0 0l-20 55m0 0l2.5-43.5m-1.5 43.5l24-10.5m.5 0l50.5-41.5m0 0l19.5-34.5m0 0l8-53m0 0l6.5 54.5m0 0L481.5 310m0 0L457 332.5m0 0l9.5-28.5m-9 28.5l-40.5 11m-10 6l17.5-5m0 0L497 338m0 0l36.5-66.5m-21 38l118-94m0 0l4.5-59m0 0L618 210m0 0l-59.5 50m0 0l-8.5 4m0 0l-16.5 8m0 0l18-81m.5.5l-11.5-22m0 0l-51-38m0 0l-51-76.5m0 0l66 72.5m0 0l-13 5.5m12.5-6.5l37.5 43.5m0 0l23 8.5m0 0L550 159m0 0l-46-32.5m61 52.5l-9 82m-6.5-59.5l.5 63.5m10-7l21.5-81.5m0 0l15-91m0 .5L544 0m0 0l34 89.5m0 0l-1 26m0 .5l-12.5 62.5m0 0l23.5-45m1.5-11l-11.5-7m0 .5l18-30m.5 0l-40-53M498 338l71-57m0 0l62-65M381.5 413l-1 16.5m0 0l-22 35m0 0l16-3.5m0 0l4.5-17m0 0l-5-5m5 4.5l12.5-2m0 0l38.5-49m0 0l24-15m0 0l21.5-1m0 0l-1 23m0 0L467 412m0 0l-5 28.5m0 0L440 468m0 0l19.5-77m0 0l15.5-14.5M460 391l14.5 7.5m-15-8L467 412m-7-22l-6.5-13m-3 47.5l-21-32M451 424l-50.5 4.5m50.5-4l-33.5 18m0 0l-17.5-11m18 10.5l23 25.5m0 0l-17 6.5m0 0l-36.5 32.5m0 0L418 441m0 0l-2.5 41M379 443.5l10 17m0 0l-.5 17m0 0l-4.5 17m-9.5-33.5l13 46m-13-24l9 9.5M387 506l-1.5 15.5m0 0l13 70m-12.5-70l-46.5 16m0 0l12.5-17m181-249l-40 51m0 0L456.5 333m-117 204.5l14 6m0 0L385 541m3-8l-34.5 53m29-44.5l-4 22.5m0 .5l-24.5 22m25-22.5l46.5 95.5m0 0l-27-68.5m-59-53l-6.5 17.5m0 0l-25 1.5m0 0l13 12.5m0 0l13-14m0 0l20.5 31.5M334 555.5l20-12.5m-46 14l-5.5-14.5m0 0l-15 7M282 531l15.5 60m0 0l10-34.5m-5.5-13l-19.5-13m-16.5 34l32.5 27m0 0l-11-.5m0 0L265 563.5m0 0l5.5 105.5m0 0l23.5-22.5m0 0l-29-83m17.5 47.5l-12 59.5m17-79.5l28 116m0 0l-22-61.5m22 61.5l-45-38m0 0l19.5 84m0 0l25-46m0 0l7 125m-.5-.5l29-96m0 0l-35.5-30m35.5 30l-5.5-29m0 0l36-35m0 0l44.5-12.5m-44 13l-3-108m-24 21.5l27 86m-27.5-86l-8.5 122m0 0l-26-112m0 0l1-26.5m-1.5 25.5l36-9.5m-35.5 10l-22-3.5m-8 8.5l43.5 46.5M289 599l56.5 109m-.5-1l59.5 51.5m0 0l-23-87m44-12.5l-9.5 74.5m0 0l-31 60m0 0l-35-59m34.5 58.5L322 833.5m0 0L259 780m0 0l31-26m0 0l32 79.5m-63.5-53l-7-77m0 0L257 574m-5.5 129l20-33m-15-96.5l-25.5 72m0 0l2 76.5m0 0l26 58.5m69-150l25.5-45" vector-effect="non-scaling-stroke"/></g></svg>
