<svg xmlns="http://www.w3.org/2000/svg" viewBox="0 0 100 100"><path d="M70.63 11.71c2.05-2.64 3.91-5.5 6.46-7.7 3.34.92 6.23 2.94 9.27 4.55 4.03 2.36 8.37 4.21 12.21 6.89 1.78.56-.05 4.38-1.54 3.02-6.55-2.85-12.55-6.81-18.92-10.03-2.2 2.78-4.4 5.57-6.55 8.38.04 4.72.03 9.43.03 14.15 2.17 2.75 4.34 5.5 6.51 8.26 5.21-2.79 10.37-5.66 15.53-8.56 1.53-.72 3.13-1.93 4.92-1.4.84 1.24.77 2.93-.8 3.48-6.8 3.9-13.68 7.69-20.72 11.15a279.92 279.92 0 0 1-6.35-7.87c-4.2 2.23-9.06 2.16-13.66 1.74-2.47-.08-3.97-2.29-5.61-3.81-5.9-.17-11.81-.08-17.71-.08 8.48 15.13 17.13 30.17 25.56 45.34 4.94.14 9.88-.17 14.81.15 2.94.02 5.32 2.73 5.29 5.61.2 4.61.52 9.31-.36 13.86-3.59.85-7.31.46-10.96.51-18.68-.03-37.36-.02-56.04 0-1.28-.23-3.57.36-3.91-1.42-.57-4.3-.38-8.68-.15-13-.02-2.8 2.26-5.44 5.11-5.55 5.4-.36 10.81 0 16.21-.12-6.87-12.97-13.6-26.01-20.57-38.91-3.41-4.33-7.88-8.18-8.69-14V21.6C1.3 11.79 11.27 4.12 21.11 6.27c4.92.55 8.34 4.29 11.94 7.23 6.08.61 12.22.09 18.32.19 1.63-1.53 3.09-3.74 5.56-3.82 4.62-.48 9.55-.58 13.7 1.84m-56.3-1.3C7.54 12.03 2.86 19.3 4.21 26.15c1 6.95 7.94 12.24 14.9 11.47 7.66-.44 13.75-8.15 12.5-15.71-.83-8-9.57-13.83-17.28-11.5m41.43 4.15c.17 6.1-.34 12.23.24 18.31 3.39 1.18 7.54 1.06 10.98.06.68-4.61.19-9.29.34-13.93-.21-1.5.37-3.36-.71-4.58-3.57-.79-7.28-.43-10.85.14m-20.87 3.43c.94 3.86.87 7.84.1 11.71 5.48-.07 10.96.01 16.45-.08-.03-3.88-.03-7.75-.03-11.62-5.51 0-11.01.01-16.52-.01M13.63 41.32c6.81 12.61 13.32 25.37 20.12 37.98 7-.07 14-.01 21-.04-7.99-14.28-16.17-28.45-24.08-42.77-4.65 4.09-10.9 6.04-17.04 4.83m-.78 42.37c-1.78 3.3-.49 7.71-.83 11.44 21.08 0 42.17.01 63.26 0-.04-3.68.3-7.4-.29-11.06-1.47-.94-3.33-.51-4.97-.64-19.05.23-38.14-.28-57.17.26z"/><path d="M13.45 13.67c6.27-3.02 14.45 1.49 15.45 8.32 1.18 6.09-3.68 12.39-9.82 12.93-5.95.82-11.88-4.01-12.36-9.98-.6-4.73 2.37-9.48 6.73-11.27m.89 3.81c-4.7 2.34-4.95 9.77-.41 12.4 4.42 3.19 11.25-.46 11.17-5.87.37-5.36-6.16-9.39-10.76-6.53z"/></svg>
