<svg xmlns="http://www.w3.org/2000/svg" style="isolation:isolate" viewBox="0 0 512 512"><defs><clipPath id="a"><path d="M0 0h512v512H0z"/></clipPath></defs><g clip-path="url(#a)"><path d="M93.828 306.195c20.689-34.585 47.875-50 88.15-50 19.517 0 38.766 5.019 55.659 14.536a6.91 6.91 0 0 0 3.419.892h.018l69.591-.141c15.983 0 28.29 4.512 36.55 13.407 9.488 10.189 11.856 24.121 12.4 32.149H234.059c-3.846 0-6.965 3.126-6.965 6.972a6.968 6.968 0 0 0 6.965 6.972h35.538c3.296.586 25.879 5.244 34.438 24.768a6.966 6.966 0 0 0 6.38 4.175c.934 0 1.892-.183 2.79-.592a6.971 6.971 0 0 0 3.595-9.176c-3.614-8.254-8.95-14.468-14.694-19.175h64.554a6.97 6.97 0 0 0 6.953-6.423c.092-1.19 2.082-29.42-16.08-49.054-11.014-11.91-26.783-17.948-46.88-17.948l-67.796.14c-18.578-10.104-39.585-15.433-60.873-15.433-44.811 0-76.49 17.796-99.622 55.976L2.137 375.371a6.968 6.968 0 0 0 4.829 11.99c1.74 0 3.479-.647 4.829-1.947l80.879-77.766a6.982 6.982 0 0 0 1.154-1.453z"/><path d="M510.249 214.016c-.409-.47-6.556-7.302-16.526-12.888 4.597-5.122 7.21-8.046 7.21-8.046a6.962 6.962 0 0 0 .031-9.255c-.678-.77-16.923-18.859-40.238-20.098-13.608-.733-26.612 4.377-38.621 15.134-13.687-5.329-34.01-7.216-55.183 12.155-.11.098-.213.196-.311.3l-14.951 15.476c-13.608-4.408-32.473-4.689-52.082 13.254-.11.091-.207.189-.311.299l-4.988 5.171a6.962 6.962 0 0 0 .165 9.847 6.968 6.968 0 0 0 9.853-.165l4.835-5.012c9.97-9.066 20.434-12.967 31.215-11.685l-23.449 24.249a6.962 6.962 0 0 0 .171 9.847 6.914 6.914 0 0 0 4.841 1.954 6.904 6.904 0 0 0 5.006-2.124l49.555-51.27c11.037-10.037 22.68-13.73 34.688-11.081l-58.125 60.141a6.978 6.978 0 0 0 .164 9.859 6.96 6.96 0 0 0 4.842 1.948c1.825 0 3.65-.702 5.012-2.125l67.991-70.348c9.237-8.4 18.932-12.405 28.828-11.911 11.343.562 20.83 6.856 26.129 11.221-1.611 1.789-3.626 4.036-5.976 6.649-3.163-.831-6.502-1.404-10.025-1.588-13.84-.738-27.057 4.542-39.231 15.678a5.076 5.076 0 0 0-.305.299l-59.676 61.746c-2.674 2.766-2.595 7.18.171 9.854 2.759 2.674 7.173 2.594 9.847-.171l59.524-61.588c9.237-8.4 18.938-12.405 28.834-11.91 11.331.567 20.836 6.855 26.123 11.227-61.88 69.102-158.895 174.883-173.565 184.303-11.288 0-24.731-.03-38.858-.067-31.606-.073-67.43-.158-89.701.067-40.452.416-101.386 59.744-103.962 62.271a6.964 6.964 0 0 0 4.878 11.936c1.758 0 3.522-.66 4.878-1.991 16.434-16.111 65.415-57.985 94.352-58.278 22.18-.232 57.961-.14 89.53-.073 14.719.036 28.694.073 40.275.073 4.737 0 9.64 0 100.036-98.101 43.7-47.418 86.661-95.446 87.094-95.928a6.982 6.982 0 0 0 .006-9.255z"/><path d="M238.546 170.872c.623.366 1.264.708 1.899 1.056 4.951 2.698 8.523 4.646 8.523 18.455v57.204c0 3.846 3.125 6.966 6.972 6.966a6.967 6.967 0 0 0 6.965-6.966v-57.204c0-20.402-7.472-26.159-15.793-30.689a54.639 54.639 0 0 1-1.606-.892c-26.752-15.409-39.304-39.005-37.301-70.116.909-14.243 4.774-26.984 7.802-35.079 7.253 6.734 19.878 17.283 38.815 29.261 27.51 17.406 16.893 48.553 13.688 56.301a190.424 190.424 0 0 0-3.193 3.241c-1.099 1.124-2.125 2.186-3.034 3.047a6.97 6.97 0 0 0-.287 9.847c2.643 2.796 7.051 2.931 9.847.287 1.13-1.074 2.265-2.234 3.462-3.474a199.69 199.69 0 0 1 2.027-2.057 6.936 6.936 0 0 0 2.704-2.625c9.53-8.779 24.548-17.534 57.308-7.735-34.719 12.204-59.323 29.035-60.721 30.006a6.948 6.948 0 0 0-3.009 5.726v70.66a6.972 6.972 0 0 0 6.972 6.971 6.965 6.965 0 0 0 6.971-6.971v-66.893c9.988-6.349 43.676-26.337 83.737-34.536 6.41-.623 11.056-1.825 12.063-2.106h.018c.074-.024.135-.037.165-.043.226-.061.434-.14.647-.226.037-.012.055-.024.086-.036.232-.092.452-.202.671-.318.031-.018.055-.024.086-.036.043-.025.091-.061.128-.086.128-.067.244-.14.36-.226.08-.055.153-.11.226-.158.104-.074.202-.153.311-.232.08-.068.153-.135.232-.208.086-.067.159-.147.245-.226.079-.079.164-.165.238-.256.067-.068.128-.147.189-.22.085-.098.159-.195.232-.287.055-.073.11-.147.159-.226.073-.11.146-.214.207-.311l.153-.263c.055-.104.11-.201.159-.305.055-.11.097-.22.14-.324.043-.085.079-.171.122-.262a3.16 3.16 0 0 0 .128-.415 1.04 1.04 0 0 0 .067-.202c.055-.165.086-.336.123-.506.012-.043.018-.086.03-.129.037-.177.055-.36.073-.537l.019-.122c.006-.147.006-.287.018-.44 0-.079.006-.152.006-.238l-.018-.165a6.65 6.65 0 0 0-.385-2.045c-.049-.146-.104-.287-.159-.433-.012-.018-.024-.049-.042-.073a3.934 3.934 0 0 0-.275-.556v-.012c-5.812-10.415-13.938-16.887-24.157-19.231-17.021-3.919-34.512 5.275-40.794 9.084-15.873-2.118-27.589.245-36.477 4.274a67.89 67.89 0 0 0 .714-7.015c1.087-20.763-7.473-37.509-24.731-48.431-29.921-18.931-43.218-34.114-43.34-34.255a6.973 6.973 0 0 0-6.105-2.381 6.989 6.989 0 0 0-5.384 3.736c-.458.892-11.289 22.253-13.126 49.14-2.485 36.526 12.802 65.415 44.23 83.516zm121.881-44.109a20.36 20.36 0 0 1 8.4 4.115c-5.83.482-13.132.342-19.688-1.978-1.35-.476-2.662-.91-3.969-1.337 4.872-1.331 10.232-1.96 15.257-.8z"/></g></svg>
