<?xml version="1.0" encoding="UTF-8" ?>
<!DOCTYPE svg PUBLIC "-//W3C//DTD SVG 1.1//EN" "http://www.w3.org/Graphics/SVG/1.1/DTD/svg11.dtd">
<svg width="100pt" height="100pt" viewBox="0 0 100 100" version="1.1" xmlns="http://www.w3.org/2000/svg">
<g id="#000000ff">
<path fill="#000000" opacity="1.00" d=" M 4.00 17.95 C 3.84 13.66 7.67 9.77 11.98 9.97 C 34.00 9.87 56.02 9.97 78.05 9.92 C 81.23 9.68 84.61 10.98 86.21 13.87 C 88.19 17.71 86.80 22.20 87.48 26.30 C 89.94 40.53 92.57 54.74 95.02 68.98 C 96.15 73.48 92.67 78.18 88.11 78.65 C 66.37 82.54 44.63 86.42 22.89 90.28 C 18.99 91.28 14.52 88.96 13.41 85.03 C 12.17 79.91 11.55 74.66 10.52 69.50 C 6.86 68.33 3.67 65.16 3.97 61.07 C 3.93 46.70 3.89 32.32 4.00 17.95 M 8.29 16.19 C 7.66 18.67 7.99 21.27 7.94 23.80 C 33.08 23.80 58.22 23.79 83.35 23.80 C 83.28 21.20 83.69 18.48 82.88 15.96 C 81.94 14.20 79.84 13.78 78.01 13.86 C 56.32 13.88 34.63 13.85 12.94 13.87 C 11.12 13.77 9.03 14.34 8.29 16.19 M 7.95 33.74 C 8.03 43.19 7.77 52.65 8.06 62.09 C 8.14 64.54 10.81 65.73 12.97 65.47 C 35.00 65.44 57.04 65.52 79.08 65.43 C 81.52 65.67 83.58 63.40 83.32 61.01 C 83.42 51.92 83.32 42.83 83.35 33.74 C 58.21 33.73 33.08 33.73 7.95 33.74 M 87.35 48.61 C 87.12 53.40 87.58 58.22 87.10 63.00 C 86.47 67.25 82.07 69.90 77.98 69.47 C 56.82 69.47 35.67 69.46 14.51 69.48 C 15.48 74.31 16.06 79.23 17.26 84.02 C 17.93 86.42 20.87 86.86 22.96 86.26 C 44.36 82.41 65.77 78.63 87.17 74.79 C 89.52 74.66 91.77 72.57 91.15 70.08 C 90.03 62.90 88.66 55.76 87.35 48.61 Z" />
<path fill="#000000" opacity="1.00" d=" M 17.88 39.67 C 28.44 39.66 39.01 39.67 49.57 39.66 C 49.58 41.00 49.59 42.33 49.60 43.66 C 39.03 43.68 28.46 43.66 17.90 43.67 C 17.89 42.34 17.89 41.00 17.88 39.67 Z" />
</g>
</svg>
