<svg xmlns="http://www.w3.org/2000/svg" viewBox="0 0 100 100"><path d="M16.02 5.1c.83-1.97 4.01-1.28 3.73.91.3 8.04 1.41 16.41 5.98 23.26 5.53 8.71 14.98 13.62 23.93 18.11 2.32-1.25 4.66-2.47 6.99-3.71-3.19-.02-6.39.17-9.57-.14-2 .01-2.3-3.63-.09-3.69 4.68-.51 9.41.03 14.11-.16 2.96.31 4.84-2.36 6.98-3.91-10.38-.13-20.76.07-31.14-.08-2.07.53-3.56-2.26-1.82-3.59 1.59-.46 3.27-.38 4.9-.41 10.59.09 21.19.02 31.78.04.85-1.3 1.71-2.61 2.56-3.92-14.14-.01-28.27-.03-42.41.02-1.61-.13-3.83.28-4.46-1.69-.08-2.05 1.87-2.45 3.49-2.35 15.11 0 30.21.04 45.31-.01.42-1.3.84-2.61 1.25-3.91-17.5-.07-35.01.12-52.51-.08-2.8.43-2.9-4.18-.1-3.86 17.86-.17 35.72 0 53.58-.07.18-1.31.35-2.62.53-3.92-17.33.01-34.67-.05-52 .03-1.52-.04-3.08.03-4.55-.42-1.59-1.2-.55-3.75 1.39-3.54 18.39-.2 36.79 0 55.18-.08.3-1.26.37-2.63 1.08-3.75 1.36-.67 3.27.09 3.12 1.78.13 11.47-3.11 23.6-11.52 31.81-11.52 11.39-28.44 14.7-40.39 25.52-6.44 5.75-10.2 14.08-11.05 22.61-.36 2.86-.18 5.79-.84 8.61-1.17 1.51-3.77.52-3.52-1.4-.14-9.83 2.15-20.08 8.26-27.98 5.35-7.09 13.25-11.51 20.97-15.55-7.17-3.71-14.44-7.74-19.73-13.99-7.18-8.31-9.91-19.71-9.42-30.49z"/><path d="M56.28 55.62c-.42-1.51.28-4.54 2.43-3.43 7.81 4.12 15.21 9.85 19.41 17.8 3.72 7.05 5.3 15.12 5.15 23.05.27 1.65-1.74 2.86-3.08 1.85-.84-1-.78-2.42-1.13-3.62-17.69.01-35.37-.04-53.06.03-1.36-.24-3.75.44-4.22-1.37-.77-1.4.9-2.83 2.25-2.56 18.34-.09 36.68 0 55.02-.04-.18-1.33-.37-2.66-.55-3.99-16.82.01-33.64-.05-50.47.03-1.57-.12-3.3.21-4.73-.61-.8-1.2-.64-2.25.47-3.15 2.72-.54 5.52-.24 8.27-.29 15.19.03 30.38.01 45.57.01-.43-1.31-.85-2.62-1.27-3.92-15.77-.07-31.54.1-47.29-.08-2.12.39-3.16-2.59-1.32-3.64 1.38-.35 2.82-.3 4.23-.33 14.15.08 28.3.03 42.45.03-.87-1.31-1.74-2.62-2.63-3.93-12.29-.09-24.59.2-36.88-.12-2.45.17-2.22-4.01.17-3.79 11-.25 22.02.04 33.02-.12-1.61-1.31-3.21-2.62-4.82-3.93-5.74-.03-11.49.19-17.22-.05-1.98.12-2.82-2.77-.99-3.68 3.71-.52 7.48-.2 11.22-.15z"/></svg>
