<svg xmlns="http://www.w3.org/2000/svg" style="isolation:isolate" viewBox="0 0 512 512"><defs><clipPath id="a"><path d="M0 0h512v512H0z"/></clipPath></defs><g clip-path="url(#a)"><path d="M454.995 130.515c1.317 0 2.555.511 3.484 1.447a4.941 4.941 0 0 1 0 6.975 4.867 4.867 0 0 1-3.466 1.435 5.027 5.027 0 0 1-1.601-.259l-2.302-.776-.776-2.302c-.603-1.798-.154-3.743 1.17-5.067a4.88 4.88 0 0 1 3.491-1.453zm-269.477 363.36l2.179 1.077a4.907 4.907 0 0 1 2.752 4.415 4.934 4.934 0 0 1-4.931 4.931 4.935 4.935 0 0 1-4.932-4.931 4.91 4.91 0 0 1 2.752-4.415l2.18-1.077zm269.477-371.056a12.595 12.595 0 0 0-8.934 3.7c-3.509 3.51-4.506 8.564-3.022 12.966l-91.649 91.654H231.717l-51.802 51.803v205.121c-4.162 2.069-7.031 6.347-7.031 11.31 0 6.975 5.658 12.627 12.628 12.627 6.975 0 12.627-5.658 12.627-12.627 0-4.963-2.869-9.241-7.031-11.31V287.577l45.239-45.239h119.667l94.936-94.935c1.311.443 2.684.665 4.057.665 3.226 0 6.452-1.226 8.915-3.688 4.931-4.932 4.931-12.929 0-17.861a12.56 12.56 0 0 0-8.927-3.7z"/><path d="M328.512 36.589a4.934 4.934 0 0 1 4.932 4.932 4.909 4.909 0 0 1-2.752 4.414l-2.18 1.077-2.179-1.077a4.909 4.909 0 0 1-2.752-4.414 4.942 4.942 0 0 1 4.931-4.932zM150.757 415.267l2.18 1.077a4.908 4.908 0 0 1 2.752 4.414 4.934 4.934 0 0 1-4.932 4.932 4.934 4.934 0 0 1-4.931-4.932 4.908 4.908 0 0 1 2.752-4.414l2.179-1.077zM328.512 28.893c-6.975 0-12.627 5.658-12.627 12.628 0 4.962 2.869 9.241 7.031 11.309v99.652l-35.85 34.57h-74.243l-67.662 67.661v154.736c-4.162 2.062-7.031 6.347-7.031 11.309 0 6.976 5.658 12.628 12.627 12.628 6.97 0 12.628-5.658 12.628-12.628 0-4.962-2.869-9.241-7.031-11.309v-150.1l61.105-61.105h74.126l42.53-41.009V52.83c4.162-2.062 7.031-6.347 7.031-11.309 0-6.976-5.658-12.628-12.634-12.628zM21.129 158.86c1.317 0 2.555.511 3.485 1.441a4.893 4.893 0 0 1 1.169 5.067l-.775 2.302-2.303.776a5.022 5.022 0 0 1-1.601.259 4.87 4.87 0 0 1-3.466-1.435 4.897 4.897 0 0 1-1.447-3.484c0-1.318.511-2.555 1.447-3.485a4.918 4.918 0 0 1 3.491-1.441zm93.938 320.091l2.18 1.077a4.91 4.91 0 0 1 2.752 4.415 4.935 4.935 0 0 1-4.932 4.931 4.934 4.934 0 0 1-4.931-4.931 4.907 4.907 0 0 1 2.752-4.415l2.179-1.077zM21.129 151.158a12.592 12.592 0 0 0-8.933 3.7c-4.932 4.932-4.932 12.929 0 17.861a12.557 12.557 0 0 0 8.914 3.688c1.373 0 2.74-.222 4.058-.665l43.718 43.718v75.579l40.591 40.591v137.503c-4.162 2.062-7.031 6.348-7.031 11.31 0 6.975 5.658 12.627 12.627 12.627 6.976 0 12.628-5.658 12.628-12.627 0-4.962-2.869-9.241-7.031-11.31V330.994l-40.591-40.591v-75.579l-47-47c1.484-4.402.486-9.456-3.023-12.966a12.595 12.595 0 0 0-8.927-3.7zM406.363 70.685c1.318 0 2.555.511 3.485 1.446a4.943 4.943 0 0 1 0 6.976 4.874 4.874 0 0 1-3.466 1.434 5.05 5.05 0 0 1-1.601-.258l-2.303-.776-.775-2.303c-.604-1.797-.154-3.743 1.169-5.066a4.871 4.871 0 0 1 3.491-1.453zm-70.34 120.713c.548 0 1.084.086 1.601.259l2.303.776.776 2.302a4.92 4.92 0 0 1-4.655 6.514 4.876 4.876 0 0 1-3.485-1.447 4.902 4.902 0 0 1-1.446-3.485c0-1.317.511-2.555 1.446-3.484a4.822 4.822 0 0 1 3.46-1.435zm70.34-128.415a12.59 12.59 0 0 0-8.933 3.7c-3.509 3.509-4.507 8.564-3.023 12.966l-22.503 22.502v50.386l-31.823 31.818a12.693 12.693 0 0 0-4.058-.665 12.534 12.534 0 0 0-8.908 3.688c-4.932 4.931-4.932 12.929 0 17.86a12.59 12.59 0 0 0 8.933 3.701 12.59 12.59 0 0 0 8.933-3.701c3.51-3.509 4.507-8.564 3.023-12.966l35.099-35.099v-50.386l19.228-19.221c1.311.443 2.684.665 4.057.665 3.226 0 6.452-1.225 8.909-3.688 4.931-4.931 4.931-12.929 0-17.86a12.59 12.59 0 0 0-8.934-3.7zM490.87 175.157a4.934 4.934 0 0 1 4.931 4.931 4.91 4.91 0 0 1-2.752 4.415l-2.179 1.077-2.18-1.077a4.91 4.91 0 0 1-2.752-4.415 4.938 4.938 0 0 1 4.932-4.931zm-41.472 91.82a5.05 5.05 0 0 1 1.601.259l2.303.776.775 2.302a4.917 4.917 0 0 1-4.654 6.514 4.874 4.874 0 0 1-3.485-1.447 4.941 4.941 0 0 1 0-6.975 4.819 4.819 0 0 1 3.46-1.429zm41.472-99.522c-6.976 0-12.628 5.658-12.628 12.627 0 4.963 2.869 9.241 7.031 11.31v36.731l-31.824 31.817a12.682 12.682 0 0 0-4.057-.665 12.542 12.542 0 0 0-8.909 3.688c-4.931 4.932-4.931 12.929 0 17.861a12.586 12.586 0 0 0 8.934 3.7c3.232 0 6.464-1.232 8.933-3.7 3.509-3.51 4.507-8.564 3.023-12.966l35.099-35.099v-41.367c4.162-2.062 7.031-6.347 7.031-11.31 0-6.969-5.658-12.627-12.633-12.627z"/><path d="M87.775 61.782a4.934 4.934 0 0 1 4.931 4.932 4.909 4.909 0 0 1-2.752 4.414l-2.179 1.077-2.18-1.077a4.909 4.909 0 0 1-2.752-4.414 4.943 4.943 0 0 1 4.932-4.932zm25.193 213.519l2.179 1.078a4.907 4.907 0 0 1 2.752 4.414 4.934 4.934 0 0 1-4.931 4.931 4.935 4.935 0 0 1-4.932-4.931 4.907 4.907 0 0 1 2.752-4.414l2.18-1.078zM87.775 54.086c-6.976 0-12.628 5.658-12.628 12.628 0 4.962 2.869 9.241 7.031 11.309v53.963l25.193 25.193v112.304c-4.162 2.063-7.031 6.348-7.031 11.31 0 6.975 5.658 12.627 12.628 12.627 6.975 0 12.627-5.658 12.627-12.627 0-4.962-2.869-9.241-7.031-11.31V152.544L93.371 127.35V78.023c4.162-2.062 7.031-6.347 7.031-11.309.006-6.97-5.652-12.628-12.627-12.628zM37.389 99.572a4.934 4.934 0 0 1 4.931 4.931 4.907 4.907 0 0 1-2.752 4.414l-2.179 1.078-2.18-1.078a4.907 4.907 0 0 1-2.752-4.414 4.943 4.943 0 0 1 4.932-4.931zm28.88 54.037c1.312 0 2.543.511 3.467 1.434a4.943 4.943 0 0 1 0 6.976 4.902 4.902 0 0 1-3.485 1.446 4.88 4.88 0 0 1-3.485-1.446 4.894 4.894 0 0 1-1.169-5.067l.775-2.303 2.303-.776a4.829 4.829 0 0 1 1.594-.264zm-28.88-61.733c-6.976 0-12.628 5.658-12.628 12.627 0 4.962 2.869 9.241 7.031 11.31v16.173l22.503 22.503c-1.484 4.402-.487 9.457 3.023 12.966a12.59 12.59 0 0 0 8.933 3.7c3.232 0 6.465-1.231 8.933-3.7 4.932-4.932 4.932-12.929 0-17.861a12.557 12.557 0 0 0-8.908-3.687c-1.373 0-2.74.221-4.058.665L42.997 127.35v-11.537c4.162-2.063 7.031-6.348 7.031-11.31-.006-6.969-5.664-12.627-12.639-12.627zM138.161 36.589a4.934 4.934 0 0 1 4.931 4.932 4.909 4.909 0 0 1-2.752 4.414l-2.179 1.077-2.18-1.077a4.909 4.909 0 0 1-2.752-4.414 4.943 4.943 0 0 1 4.932-4.932zM264.095 137.33a4.936 4.936 0 0 1 4.932 4.932 4.935 4.935 0 0 1-4.932 4.931 4.905 4.905 0 0 1-4.414-2.752l-1.078-2.173 1.078-2.179c.85-1.7 2.536-2.759 4.414-2.759zM138.161 28.893c-6.976 0-12.628 5.658-12.628 12.628 0 4.962 2.869 9.241 7.031 11.309V81.6l66.265 66.264h53.963c2.068 4.162 6.347 7.031 11.309 7.031 6.976 0 12.628-5.658 12.628-12.627 0-6.975-5.658-12.627-12.628-12.627-4.962 0-9.241 2.869-11.309 7.031h-49.328l-59.701-59.701V52.83c4.162-2.062 7.031-6.347 7.031-11.309 0-6.976-5.658-12.628-12.633-12.628z"/><path d="M230.006 7.696c1.317 0 2.555.511 3.484 1.447a4.897 4.897 0 0 1 1.447 3.484 4.897 4.897 0 0 1-1.44 3.485 4.874 4.874 0 0 1-3.467 1.434 5.048 5.048 0 0 1-1.6-.258l-2.303-.776-.776-2.302c-.603-1.798-.154-3.744 1.17-5.067a4.9 4.9 0 0 1 3.485-1.447zm46.686 79.248a4.935 4.935 0 0 1 4.931 4.932 4.934 4.934 0 0 1-4.931 4.931 4.907 4.907 0 0 1-4.415-2.752l-1.077-2.173 1.077-2.179c.85-1.706 2.537-2.759 4.415-2.759zM230.006 0a12.588 12.588 0 0 0-8.933 3.7c-3.51 3.509-4.507 8.564-3.023 12.966l-37.421 37.42 43.386 43.386h41.367c2.069 4.162 6.347 7.031 11.31 7.031 6.975 0 12.627-5.658 12.627-12.627 0-6.976-5.658-12.627-12.627-12.627-4.963 0-9.241 2.869-11.31 7.03h-36.724l-32.194-32.193 29.503-29.502a12.68 12.68 0 0 0 4.057.664c3.226 0 6.452-1.225 8.915-3.687 4.932-4.932 4.932-12.929 0-17.861a12.59 12.59 0 0 0-8.933-3.7z"/><path d="M292.988 7.696c1.318 0 2.555.511 3.485 1.447a4.941 4.941 0 0 1 0 6.975 4.869 4.869 0 0 1-3.466 1.435 5.05 5.05 0 0 1-1.601-.259l-2.302-.776-.776-2.302a4.916 4.916 0 0 1 1.17-5.067 4.902 4.902 0 0 1 3.49-1.453zm-32.544 32.538a5.05 5.05 0 0 1 1.601.258l2.303.776.775 2.303a4.918 4.918 0 0 1-4.654 6.513 4.877 4.877 0 0 1-3.485-1.446 4.905 4.905 0 0 1-1.447-3.485c0-1.318.511-2.555 1.447-3.485a4.85 4.85 0 0 1 3.46-1.434zM292.988 0a12.59 12.59 0 0 0-8.933 3.7c-3.509 3.509-4.507 8.564-3.023 12.966l-16.537 16.537a12.682 12.682 0 0 0-4.057-.665 12.538 12.538 0 0 0-8.909 3.688c-4.931 4.931-4.931 12.929 0 17.86a12.592 12.592 0 0 0 8.934 3.7 12.59 12.59 0 0 0 8.933-3.7c3.509-3.509 4.507-8.564 3.023-12.966l16.537-16.536a12.68 12.68 0 0 0 4.057.664 12.54 12.54 0 0 0 8.909-3.687c4.931-4.932 4.931-12.929 0-17.861a12.59 12.59 0 0 0-8.934-3.7zM147.094 133.667c1.318 0 2.555.511 3.485 1.441a4.893 4.893 0 0 1 1.17 5.067l-.776 2.302-2.303.776a5.022 5.022 0 0 1-1.601.259 4.87 4.87 0 0 1-3.466-1.435 4.941 4.941 0 0 1 0-6.975 4.939 4.939 0 0 1 3.491-1.435zm-.018 57.731c.548 0 1.083.086 1.6.259l2.303.776.776 2.302c.603 1.798.154 3.743-1.17 5.067a4.9 4.9 0 0 1-3.485 1.447 4.872 4.872 0 0 1-3.484-1.447 4.941 4.941 0 0 1 0-6.975 4.837 4.837 0 0 1 3.46-1.429zm.018-65.433a12.594 12.594 0 0 0-8.933 3.7c-4.932 4.932-4.932 12.929 0 17.861a12.556 12.556 0 0 0 8.908 3.688c1.373 0 2.74-.222 4.058-.665l6.63 6.624v20.557l-6.624 6.625a12.682 12.682 0 0 0-4.057-.665 12.536 12.536 0 0 0-8.909 3.688c-4.932 4.931-4.932 12.929 0 17.86a12.58 12.58 0 0 0 8.933 3.701c3.233 0 6.465-1.232 8.934-3.701 3.509-3.509 4.506-8.564 3.022-12.966l9.907-9.906v-29.829l-9.907-9.906c1.484-4.402.487-9.456-3.022-12.966a12.645 12.645 0 0 0-8.94-3.7zM444.153 209.246c1.317 0 2.555.511 3.485 1.447a4.944 4.944 0 0 1 0 6.976 4.874 4.874 0 0 1-3.467 1.434 5.043 5.043 0 0 1-1.6-.258l-2.303-.776-.776-2.303c-.603-1.798-.154-3.743 1.17-5.067a4.87 4.87 0 0 1 3.491-1.453zm-179.99 66.646a4.907 4.907 0 0 1 4.414 2.752l1.078 2.18-1.078 2.173a4.907 4.907 0 0 1-4.414 2.752 4.935 4.935 0 0 1-4.932-4.932 4.93 4.93 0 0 1 4.932-4.925zm179.99-74.341a12.588 12.588 0 0 0-8.933 3.7c-3.51 3.509-4.507 8.564-3.023 12.966l-57.017 57.016h-99.707c-2.063-4.162-6.348-7.031-11.31-7.031-6.976 0-12.627 5.658-12.627 12.628 0 6.975 5.658 12.627 12.627 12.627 4.962 0 9.241-2.869 11.31-7.031h104.349l60.292-60.292c1.311.443 2.684.665 4.057.665a12.56 12.56 0 0 0 8.915-3.688c4.932-4.931 4.932-12.929 0-17.86a12.59 12.59 0 0 0-8.933-3.7zM21.129 221.843c1.317 0 2.555.511 3.485 1.441a4.891 4.891 0 0 1 1.169 5.066l-.775 2.303-2.303.776a5.05 5.05 0 0 1-1.601.258 4.874 4.874 0 0 1-3.466-1.434 4.943 4.943 0 0 1 0-6.976 4.94 4.94 0 0 1 3.491-1.434zm16.26 53.458l2.179 1.078a4.907 4.907 0 0 1 2.752 4.414 4.934 4.934 0 0 1-4.931 4.931 4.934 4.934 0 0 1-4.932-4.931 4.907 4.907 0 0 1 2.752-4.414l2.18-1.078zm-16.26-61.154a12.588 12.588 0 0 0-8.933 3.7c-4.932 4.932-4.932 12.929 0 17.861a12.557 12.557 0 0 0 8.908 3.687c1.373 0 2.74-.221 4.057-.664l6.631 6.624v24.128c-4.162 2.063-7.031 6.348-7.031 11.31 0 6.975 5.658 12.627 12.628 12.627 6.969 0 12.627-5.658 12.627-12.627 0-4.962-2.869-9.241-7.031-11.31v-28.77l-9.906-9.906c1.484-4.402.486-9.457-3.023-12.966a12.585 12.585 0 0 0-8.927-3.694z"/></g></svg>
