<svg xmlns="http://www.w3.org/2000/svg" style="isolation:isolate" viewBox="0 0 512 477.093"><defs><clipPath id="a"><path d="M0 0h512v477.093H0z"/></clipPath></defs><g clip-path="url(#a)"><path d="M157.091 0c-6.427 0-11.637 5.21-11.637 11.636-.125 7.55 6.117 11.487 12.91 11.455l10.363 13.818v79.455h-18.545c-2.667.509-4.775 3.103-4.728 5.818v17.455H50.727c-2.013-3.473-5.697-5.818-10-5.818-6.427 0-11.636 5.209-11.636 11.636s5.209 11.636 11.636 11.636c4.265 0 7.974-2.396 10-5.818h94.727v34.909c-18.367-.052-45.724.053-71.361.053-1.135-.188-2.215.651-3.09.909L50.727 203.64H21.636c-2.013-3.473-5.696-5.818-10-5.818C5.21 197.822 0 203.031 0 209.458s5.21 11.636 11.636 11.636c4.265 0 7.974-2.396 10-5.818h30.728a5.854 5.854 0 0 0 3.091-1.091l20.275-16.314c22.796-1.191 46.699-.052 69.725-.052v34.909H50.727c-2.013-3.473-5.697-5.818-10-5.818-6.426 0-11.636 5.209-11.636 11.636s5.21 11.636 11.636 11.636c4.265 0 7.974-2.396 10-5.818h94.728v34.909H51.273a5.834 5.834 0 0 0-2.546 1.273l-21.273 16.909c-9.81-2.848-15.63 4.738-15.818 10.909 0 6.426 5.21 11.636 11.636 11.636 7.004-.058 11.486-6.307 11.455-13.454l19.637-15.637h91.091v34.909h-45.273l-18.909-7.454c-.799-5.649-5.586-10-11.455-10-6.427 0-11.636 5.21-11.636 11.636 0 6.427 5.209 11.636 11.636 11.636 2.742 0 5.284-.958 7.273-2.545l19.636 7.818c.683.32 1.428.507 2.182.547h46.545v17.455c.001 3.046 2.772 5.818 5.819 5.818h17.454v79.273l-10.363 14c-8.43-.059-12.738 5.818-12.91 11.455 0 6.426 5.21 11.636 11.637 11.636 7.216-.431 13.681-6.782 10.727-16.182l11.455-15.272a5.868 5.868 0 0 0 1.091-3.455v-81.455h34.909v44.91l-.909 1.636c-6 .465-10.728 5.517-10.728 11.636 0 6.427 5.21 11.636 11.637 11.636 6.426 0 11.636-5.209 11.636-11.636 0-2.323-.645-4.547-1.818-6.363l1.273-2.728c.37-.793.558-1.67.545-2.545v-46.546h34.909v44l-28.364 28.364a5.886 5.886 0 0 0-1.636 4.182l.545 18.363c-3.283 2.058-5.455 5.659-5.455 9.819 0 6.426 5.21 11.636 11.637 11.636 6.426 0 11.636-5.21 11.636-11.636 0-4.447-2.516-8.223-6.182-10.182l-.545-15.637 28.364-28.363a5.883 5.883 0 0 0 1.636-4v-46.546h34.909v44l-26.181 26.182c-8.955-1.432-14.368 5.413-14.546 11.273 0 6.427 5.21 11.636 11.636 11.636 8.18-.262 11.659-5.078 11.273-14.727l27.818-27.818a5.884 5.884 0 0 0 1.637-4v-46.546h34.909v46.546a5.888 5.888 0 0 0 1.636 4l27.818 27.818c-2.02 9.742 5.321 14.546 11.273 14.727 6.427 0 11.637-5.209 11.637-11.636.122-8.054-6.072-12.57-14.546-11.273l-26.182-26.182v-44H384c3.046 0 5.818-2.772 5.818-5.818v-17.455h80.727l18.364 7.273c.773 5.678 5.565 10.182 11.455 10.182 6.426 0 11.636-5.21 11.636-11.636 0-6.427-5.21-11.637-11.636-11.637-2.707 0-5.115.996-7.091 2.546l-19.818-8a5.705 5.705 0 0 0-2.182-.361h-81.455v-34.909h30.727c2.026 3.421 5.736 5.818 10 5.818 6.427 0 11.637-5.21 11.637-11.636 0-6.427-5.21-11.637-11.637-11.637-4.303 0-7.986 2.346-10 5.818h-30.727v-34.909H428l23.636 27.637a5.906 5.906 0 0 0 4.546 2l28.545-.361c2.055 3.297 5.648 5.636 9.818 5.636 6.427 0 11.637-5.209 11.637-11.636 0-6.426-5.21-11.636-11.637-11.636-4.39 0-8.2 2.411-10.181 6l-25.637.361-23.818-27.637a5.899 5.899 0 0 0-4.364-2h-40.727v-34.909H448a5.895 5.895 0 0 0 4.182-1.818l15.636-15.637h16.727c2.027 3.422 5.736 5.819 10 5.819 6.427 0 11.637-5.21 11.637-11.637 0-6.426-5.21-11.636-11.637-11.636-4.303 0-7.986 2.345-10 5.818h-20.181a5.865 5.865 0 0 0-3.091 1.636l-15.819 15.819h-55.636v-34.909h81.455a5.881 5.881 0 0 0 3.454-1.273l15.091-11.273c1.431.629 3.064.909 4.727.909 6.427 0 11.637-5.21 11.637-11.636 0-6.427-5.21-11.637-11.637-11.637-6.535.25-11.486 4.746-11.454 12.91l-13.819 10.363h-79.454v-17.454c-.001-3.047-2.772-5.818-5.818-5.819h-17.455V21.641c3.473-2.013 5.818-5.697 5.818-10 0-6.427-5.21-11.636-11.636-11.636-6.427 0-11.637 5.209-11.637 11.636 0 4.303 2.346 7.987 5.819 10v94.727h-34.91V69.823a5.858 5.858 0 0 0-.363-2.182l-8-20c1.517-1.965 2.545-4.235 2.545-6.909 0-6.427-5.209-11.636-11.636-11.636s-11.636 5.209-11.636 11.636c0 5.874 4.344 10.663 10 11.455l7.455 18.727v45.454h-34.909V71.641l5.09-7.818c7.504.33 12.288-5.222 12.364-11.455 0-6.427-5.21-11.636-11.636-11.636-6.427 0-11.637 5.209-11.637 11.636 0 1.855.501 3.535 1.273 5.091l-6.182 9.091a5.861 5.861 0 0 0-.909 3.273v46.545h-34.909V72.186l27.455-27.454a5.888 5.888 0 0 0 1.636-4V21.641c3.473-2.014 5.818-5.697 5.818-10 0-6.427-5.21-11.637-11.636-11.637-6.427 0-11.637 5.21-11.637 11.637 0 4.303 2.346 7.986 5.819 10v16.545l-27.455 27.455a5.886 5.886 0 0 0-1.636 4.182v46.545h-34.909V34.913a5.872 5.872 0 0 0-1.091-3.636l-11.455-15.091c.589-1.392.909-2.938.909-4.545 0-6.427-5.21-11.636-11.636-11.636V0zm0 128h221.091v221.091H157.091V128zm33.818 29.091c-2.667.509-4.775 3.104-4.727 5.818v151.273c0 3.046 2.772 5.818 5.818 5.818h151.273c3.046 0 5.818-2.772 5.818-5.818V162.909c0-3.046-2.772-5.818-5.818-5.818H190.909zm6.909 11.636h139.637v139.637H197.818V168.727zm23.273 17.455a5.818 5.818 0 1 0 0 11.636 5.818 5.818 0 0 0 0-11.636zm23.273 0a5.818 5.818 0 1 0-.001 11.637 5.818 5.818 0 0 0 .001-11.637zm23.272 0a5.818 5.818 0 1 0 0 11.636 5.818 5.818 0 0 0 0-11.636zm23.273 0a5.818 5.818 0 1 0 0 11.636 5.818 5.818 0 0 0 0-11.636zm23.273 0a5.818 5.818 0 1 0 0 11.636 5.818 5.818 0 0 0 0-11.636zm-93.091 23.273a5.818 5.818 0 1 0 0 11.636 5.818 5.818 0 0 0 0-11.636zm23.273 0a5.818 5.818 0 1 0-.001 11.637 5.818 5.818 0 0 0 .001-11.637zm23.272 0a5.818 5.818 0 1 0 0 11.636 5.818 5.818 0 0 0 0-11.636zm23.273 0a5.818 5.818 0 1 0 0 11.636 5.818 5.818 0 0 0 0-11.636zm23.273 0a5.818 5.818 0 1 0 0 11.636 5.818 5.818 0 0 0 0-11.636zm-93.091 23.272a5.819 5.819 0 1 0 .002 11.638 5.819 5.819 0 0 0-.002-11.638zm23.273 0a5.82 5.82 0 1 0 0 11.638 5.82 5.82 0 0 0 0-11.638zm23.272 0a5.819 5.819 0 1 0 .002 11.638 5.819 5.819 0 0 0-.002-11.638zm23.273 0a5.819 5.819 0 1 0 .002 11.638 5.819 5.819 0 0 0-.002-11.638zm23.273 0a5.819 5.819 0 1 0 .002 11.638 5.819 5.819 0 0 0-.002-11.638zM221.091 256a5.818 5.818 0 1 0 0 11.636 5.818 5.818 0 0 0 0-11.636zm23.273 0a5.818 5.818 0 1 0-.001 11.637 5.818 5.818 0 0 0 .001-11.637zm23.272 0a5.818 5.818 0 1 0 0 11.636 5.818 5.818 0 0 0 0-11.636zm23.273 0a5.818 5.818 0 1 0 0 11.636 5.818 5.818 0 0 0 0-11.636zm23.273 0a5.818 5.818 0 1 0 0 11.636 5.818 5.818 0 0 0 0-11.636zm-93.091 23.273a5.818 5.818 0 1 0 0 11.636 5.818 5.818 0 0 0 0-11.636zm23.273 0a5.818 5.818 0 1 0-.001 11.637 5.818 5.818 0 0 0 .001-11.637zm23.272 0a5.818 5.818 0 1 0 0 11.636 5.818 5.818 0 0 0 0-11.636zm23.273 0a5.818 5.818 0 1 0 0 11.636 5.818 5.818 0 0 0 0-11.636zm23.273 0a5.818 5.818 0 1 0 0 11.636 5.818 5.818 0 0 0 0-11.636z"/></g></svg>
