<svg xmlns="http://www.w3.org/2000/svg" style="isolation:isolate" viewBox="0 0 512 512"><defs><clipPath id="a"><path d="M0 0h512v512H0z"/></clipPath></defs><g clip-path="url(#a)"><path d="M36.337 319.092a62.546 62.546 0 0 0 8.942 5.159c3.708 1.879 9.917 5.029 10.342 7.258a14.446 14.446 0 0 1-.934 8.542c-1.275 2.675-2.6 4.983-3.741 6.991-3.159 5.546-8.434 14.83-.475 21.484 1.85 1.625 5.025 4.091 7.916 6.296a21.407 21.407 0 0 0-2.758 12.345 12.219 12.219 0 0 0 5.058 8.317c1.917 1.35 3.959 2.529 5.992 3.679 5.058 2.867 7.025 4.2 7.708 6.858.453 3.47.135 6.997-.933 10.329-.492 2.238-.983 4.475-1.283 6.717a49.476 49.476 0 0 0 2.875 22.942c4.497 16.226 20.878 26.121 37.333 22.549a704.053 704.053 0 0 0 72.441-21.541c19.317 11.317 31.525 45.633 34.708 58.496a8.536 8.536 0 0 0 8.284 6.487h.025l215.391-.592a8.536 8.536 0 0 0 8.133-11.037 65.42 65.42 0 0 0-8.758-16.35 79.42 79.42 0 0 1-5.492-9.042 167.702 167.702 0 0 1-9.683-24.399 281.373 281.373 0 0 1-10.117-50.459 143.372 143.372 0 0 1 11.217-74.878 191.568 191.568 0 0 1 23.308-36.563c5.183-6.937 10.541-14.112 15.366-21.683a130.778 130.778 0 0 0 21.017-70.15 254.477 254.477 0 0 0-8.983-72.47 141.409 141.409 0 0 0-51.317-73.379C379.519 13.248 334.37-2.373 281.32.289a578.842 578.842 0 0 0-83.008 11.792c-38.7 7.746-66.825 21.275-85.958 41.354a161.93 161.93 0 0 0-34.442 55.808 225.795 225.795 0 0 0-7.791 27.921l-.684 2.946a107.285 107.285 0 0 1-7.291 19.283c-1.775 3.95-3.55 7.9-5.084 11.937a28.747 28.747 0 0 0-2.308 14.375 32.6 32.6 0 0 0 12.525 19.017c3.583 3.258 6.967 6.342 7 8.958a14.508 14.508 0 0 1-1.492 3.625 329.61 329.61 0 0 1-37.625 60.813c-6.133 7.466-12.566 16.179-11.266 25.066a26.456 26.456 0 0 0 12.441 15.908zm376.566-.72c-1.133 2.585-2.136 5.21-3.13 7.836-16.082-49.361-56.371-81.91-98.62-106.372v-38.091c30.26 14.779 66.781 5.121 85.779-22.685h20.237c6.983-.019 12.663 5.617 12.701 12.6v44.695h-16.917v-4.171c-.008-7.066-5.734-12.792-12.8-12.8h-16.867c-7.066.008-12.792 5.734-12.8 12.8v16.871c.008 7.066 5.734 12.792 12.8 12.8h16.867c7.066-.008 12.792-5.734 12.8-12.8v-4.167h16.917v64.915a161.52 161.52 0 0 0-16.967 28.569zm-76.35-247.605v22.506c-13.81 1.994-24.058 13.83-24.058 27.783 0 13.953 10.248 25.788 24.058 27.782v22.506c-26.284-2.014-46.583-23.928-46.583-50.288 0-26.361 20.299-48.275 46.583-50.289zm55.117 50.289c-.118 26.314-20.355 48.161-46.584 50.288v-22.506c13.81-1.994 24.058-13.829 24.058-27.782s-10.248-25.789-24.058-27.783V70.767c26.229 2.127 46.466 23.974 46.583 50.288l.001.001zm-50.85-11.146c6.141.061 11.075 5.079 11.034 11.22-.041 6.142-5.042 11.093-11.184 11.072-6.141-.021-11.109-5.005-11.109-11.147.038-6.183 5.075-11.169 11.259-11.145zm63.599 119.145a4.272 4.272 0 0 1-4.266 4.267h-16.867a4.272 4.272 0 0 1-4.266-4.267v-16.871a4.271 4.271 0 0 1 4.266-4.266h16.867a4.272 4.272 0 0 1 4.267 4.266l-.001 16.871zm48.392 28.775c-4.412 6.916-9.483 13.719-14.408 20.31V171.66c-.041-11.694-9.54-21.149-21.234-21.134h-15.328a66.471 66.471 0 0 0 3.483-50.504h44.67a115.78 115.78 0 0 1 12.825 29.042 236.912 236.912 0 0 1 8.333 67.537 114.096 114.096 0 0 1-18.341 61.229zm-8.61-166.341h-42.407c-15.661-31.972-53.37-46.402-86.374-33.055V18.561a204.116 204.116 0 0 1 102.016 45.907 139.583 139.583 0 0 1 26.765 27.021zM282.195 17.331c5.477-.273 10.841-.259 16.158-.097v50.684c0 .151.077.276.085.424a67.33 67.33 0 0 0-25.318 48.447h-51.067c-6.982.018-12.662-5.618-12.7-12.6V63.702h8.434v4.166c.007 7.066 5.734 12.793 12.8 12.8h16.866c7.066-.007 12.793-5.734 12.8-12.8V51.002c-.007-7.066-5.734-12.793-12.8-12.8h-16.866c-7.066.007-12.793 5.734-12.8 12.8v4.166h-8.434V27.335a527.277 527.277 0 0 1 72.842-10.004zM226.32 51.002a4.272 4.272 0 0 1 4.267-4.267h16.866a4.272 4.272 0 0 1 4.267 4.267v16.866a4.273 4.273 0 0 1-4.267 4.267h-16.866a4.273 4.273 0 0 1-4.267-4.267V51.002zm-25.5-21.998v75.185c.041 11.694 9.54 21.148 21.233 21.133h51.067a67.467 67.467 0 0 0 29.499 51.56v38.129c-16.822-9.288-33.714-17.412-49.283-24.885-6.6-3.171-12.975-6.23-19-9.217-54.308-27.019-55.472-122.57-54.879-146.548a238.2 238.2 0 0 1 21.363-5.357zM48.754 288.459a343.547 343.547 0 0 0 39.233-63.391 24.588 24.588 0 0 0 3.358-11.592 29.72 29.72 0 0 0-12.574-21.375c-3.475-3.158-6.75-6.142-7.117-8.742a14.786 14.786 0 0 1 1.366-5.979c1.408-3.712 3.05-7.345 4.692-10.979a122.427 122.427 0 0 0 8.342-22.4l.691-2.975a208.529 208.529 0 0 1 7.167-25.841 144.985 144.985 0 0 1 30.792-49.975 109.313 109.313 0 0 1 37.545-24.678c-.22 34.123 4.899 126.014 64.496 155.665 6.1 3.021 12.542 6.112 19.208 9.312 67.167 32.244 150.704 72.368 153.998 162.935a156.662 156.662 0 0 0 .419 33.744 297.84 297.84 0 0 0 10.758 53.454 183.716 183.716 0 0 0 10.641 26.812 94.768 94.768 0 0 0 6.609 11.008c.208.304.408.613.616.917l-194.74.537a135.908 135.908 0 0 0-30.243-54.499c2.234-.775 4.351-1.513 6.317-2.2 6.442-2.242 11.308-3.942 13.742-4.704 36.783-11.471 55.191-28.101 54.691-49.421a8.535 8.535 0 0 0-8.533-8.333l-.2.004a8.534 8.534 0 0 0-8.333 8.729c.208 8.792-7.034 21.604-42.725 32.733-2.534.796-7.575 2.55-14.259 4.875a2879.66 2879.66 0 0 1-21.966 7.584l-.05.016a718.562 718.562 0 0 1-73.758 22.142c-8.039 1.553-15.876-3.502-17.775-11.467a32.705 32.705 0 0 1-2.075-15.029c.233-1.766.642-3.529 1.033-5.295a37.67 37.67 0 0 0 .8-18.263 28.26 28.26 0 0 0-15.816-17.467c-.608-.346-1.225-.691-1.833-1.046a31.346 31.346 0 0 1 3.275-5.258 8.529 8.529 0 0 0-1.642-12.154c-2.067-1.517-6.958-5.163-10.483-7.958.425-.788.916-1.646 1.358-2.425 1.325-2.317 2.833-4.992 4.292-8.05a31.371 31.371 0 0 0 2.316-19.121c-2.008-10.467-12.05-15.558-19.391-19.279a49.758 49.758 0 0 1-7.117-4.105 45.184 45.184 0 0 1-5.083-4.066c.033-1.275 1.375-4.379 7.958-12.4z"/></g></svg>